<?xml version="1.0" encoding="utf-8"?>
<!-- Generator: Adobe Illustrator 15.1.0, SVG Export Plug-In . SVG Version: 6.00 Build 0)  -->
<!DOCTYPE svg PUBLIC "-//W3C//DTD SVG 1.1//EN" "http://www.w3.org/Graphics/SVG/1.1/DTD/svg11.dtd">
<svg version="1.1" id="Layer_1" xmlns="http://www.w3.org/2000/svg" xmlns:xlink="http://www.w3.org/1999/xlink" x="0px" y="0px"
	 width="640px" height="126.496px" viewBox="0 0 640 126.496" enable-background="new 0 0 640 126.496" xml:space="preserve">
<g>
	<g>
		<path fill="#DE2627" d="M457.055,33.865l-0.004-0.434c-0.609,0.154-1.25,0.176-1.863,0.066l0.004,0.367
			c-31.551-2.924-37.105,26.303-20.658,46.039c6.279,6.496,10.797,13.838,21.592,8.57c10.803,5.268,15.303-2.074,21.598-8.57
			C494.176,60.164,488.615,30.935,457.055,33.865z M437.672,49.521h-0.016c-0.434,3.018-4.537,3.299-3.24-0.756
			c0.832-3.006,4.254-9.041,11.777-9.041C441.51,41.517,437.92,46.5,437.672,49.521z"/>
		<g>
			<path fill="#55BA6A" d="M434.621,17.248c2.689,11.639,7.676,11.795,20.512,11.795C454.717,22.609,445.729,17.429,434.621,17.248z
				"/>
			<path fill="#49B649" d="M455.889,27.279c-0.004-0.01-0.01-0.018-0.016-0.029c-0.012,0.041-0.025,0.076-0.041,0.111
				c-1.719-6.262-11.145-11.051-21.711-11.051v0.006c0,0-0.109-0.006-0.145,0.002c-0.252,0.057-0.434,0.303-0.377,0.555
				c2.82,12.963,8.34,13.102,21.6,13.107c0,0.006,0,0.014-0.002,0.023c0.598-0.059,1.197-0.006,1.795,0.096
				c0-0.008,0-0.018,0.004-0.025c-0.367-0.645-0.719-1.316-0.938-2.027C455.979,27.796,455.932,27.542,455.889,27.279z
				 M434.621,17.248"/>
		</g>
		<path fill="#997D41" d="M457.127,33.859c-0.023,0-0.047,0-0.07,0.006l-0.006-0.562c-0.031-2.543-0.088-6.807,3.707-9.086
			c0.441-0.266,0.582-0.838,0.318-1.279c-0.264-0.439-0.838-0.586-1.279-0.32c-2.102,1.264-3.209,2.982-3.836,4.744
			c-0.592,1.547-0.633,2.619-0.633,2.619c-0.154,1.26-0.146,2.438-0.137,3.348l0.002,0.537"/>
	</g>
	<polyline fill="none" stroke="#949699" stroke-width="7.5" stroke-linecap="round" points="125.234,39.156 75.389,67.193 
		125.234,93.671 	"/>
	<polyline fill="none" stroke="#949699" stroke-width="7.5" stroke-linecap="round" points="544.436,39.156 594.277,67.193 
		544.436,93.671 	"/>
	
		<line fill="none" stroke="#949699" stroke-width="7.5" stroke-linecap="round" x1="530.07" y1="25.134" x2="493.988" y2="109.246"/>
	<g>
		<path fill="#949699" d="M164.441,86.542c-2.59,0-4.742-0.559-6.455-1.678c-1.713-1.117-3.127-2.416-4.244-3.893v4.912h-7.309
			V42.152h7.309l-0.059,17.373c1.156-1.676,2.596-3.084,4.312-4.225c1.717-1.139,3.854-1.705,6.41-1.705
			c1.877,0,3.693,0.357,5.453,1.078c1.756,0.719,3.322,1.777,4.701,3.176c1.379,1.396,2.486,3.113,3.326,5.15
			c0.836,2.037,1.256,4.373,1.256,7.008v0.121c0,2.637-0.408,4.973-1.225,7.01s-1.914,3.754-3.287,5.15
			c-1.373,1.4-2.949,2.457-4.721,3.176C168.137,86.183,166.312,86.542,164.441,86.542z M162.789,80.253
			c1.238,0,2.406-0.24,3.504-0.721c1.098-0.479,2.057-1.146,2.875-2.006c0.82-0.857,1.469-1.918,1.947-3.176
			c0.48-1.256,0.719-2.664,0.719-4.223v-0.121c0-1.516-0.238-2.904-0.719-4.162c-0.479-1.258-1.127-2.326-1.947-3.205
			c-0.818-0.877-1.777-1.557-2.875-2.037c-1.098-0.479-2.266-0.719-3.504-0.719s-2.418,0.24-3.535,0.719
			c-1.119,0.48-2.096,1.168-2.936,2.066c-0.838,0.898-1.506,1.969-2.006,3.207c-0.5,1.236-0.75,2.615-0.75,4.131v0.121
			c0,1.518,0.25,2.906,0.75,4.164c0.5,1.256,1.168,2.326,2.006,3.205c0.84,0.879,1.816,1.557,2.936,2.035
			C160.371,80.013,161.551,80.253,162.789,80.253z"/>
		<path fill="#949699" d="M201.068,86.603c-2.275,0-4.404-0.4-6.379-1.199c-1.979-0.797-3.697-1.916-5.154-3.354
			c-1.457-1.439-2.605-3.166-3.443-5.182c-0.84-2.016-1.258-4.242-1.258-6.68v-0.121c0-2.277,0.379-4.412,1.139-6.408
			c0.758-1.998,1.826-3.746,3.203-5.244c1.379-1.496,3.006-2.674,4.883-3.533s3.953-1.287,6.23-1.287
			c2.516,0,4.723,0.459,6.619,1.377c1.896,0.92,3.475,2.156,4.732,3.713c1.26,1.559,2.207,3.365,2.848,5.422
			c0.639,2.059,0.957,4.223,0.957,6.5c0,0.32-0.01,0.65-0.029,0.988c-0.02,0.34-0.051,0.691-0.09,1.049h-23.244
			c0.398,2.598,1.428,4.582,3.086,5.961c1.656,1.379,3.664,2.066,6.02,2.066c1.799,0,3.355-0.318,4.674-0.957
			c1.316-0.639,2.615-1.578,3.893-2.816l4.254,3.773c-1.518,1.799-3.324,3.234-5.422,4.314
			C206.49,86.064,203.984,86.603,201.068,86.603z M208.258,67.851c-0.121-1.156-0.381-2.244-0.779-3.264
			c-0.4-1.02-0.939-1.896-1.617-2.637c-0.68-0.738-1.488-1.326-2.428-1.766c-0.938-0.439-2.006-0.66-3.205-0.66
			c-2.236,0-4.084,0.77-5.539,2.307c-1.459,1.537-2.348,3.545-2.666,6.02H208.258z"/>
		<path fill="#949699" d="M233.418,86.423c-1.32,0-2.543-0.16-3.67-0.48c-1.127-0.318-2.104-0.838-2.93-1.557
			s-1.459-1.666-1.902-2.846c-0.443-1.178-0.664-2.645-0.664-4.402V60.484h-4.014v-6.23h4.014v-8.686h7.309v8.686h8.506v6.23h-8.506
			V76c0,1.398,0.338,2.406,1.018,3.025s1.639,0.928,2.875,0.928c1.559,0,3.057-0.359,4.494-1.078v5.932
			c-0.92,0.52-1.896,0.918-2.936,1.197S234.773,86.423,233.418,86.423z"/>
		<path fill="#949699" d="M266.666,85.884V81.99c-1.08,1.279-2.457,2.357-4.135,3.234c-1.676,0.879-3.715,1.318-6.111,1.318
			c-1.518,0-2.955-0.209-4.312-0.629s-2.545-1.037-3.564-1.857c-1.02-0.818-1.838-1.836-2.455-3.055
			c-0.619-1.217-0.93-2.625-0.93-4.223v-0.121c0-1.756,0.32-3.283,0.959-4.582c0.639-1.297,1.527-2.375,2.666-3.234
			s2.496-1.498,4.072-1.918c1.578-0.42,3.285-0.629,5.123-0.629c1.916,0,3.545,0.121,4.883,0.359
			c1.338,0.24,2.625,0.559,3.863,0.959v-0.6c0-2.195-0.668-3.875-2.008-5.033c-1.338-1.156-3.264-1.736-5.779-1.736
			c-1.797,0-3.396,0.18-4.793,0.539c-1.398,0.359-2.816,0.84-4.254,1.438l-1.977-5.811c1.756-0.799,3.555-1.438,5.393-1.918
			c1.834-0.479,4.053-0.717,6.648-0.717c4.713,0,8.207,1.168,10.484,3.504c2.275,2.336,3.414,5.621,3.414,9.854v18.752H266.666z
			 M266.844,72.644c-0.918-0.357-2.006-0.658-3.266-0.898c-1.256-0.24-2.584-0.359-3.982-0.359c-2.275,0-4.055,0.439-5.332,1.318
			c-1.279,0.879-1.916,2.078-1.916,3.594v0.119c0,1.52,0.588,2.678,1.768,3.475c1.178,0.801,2.625,1.199,4.342,1.199
			c1.199,0,2.307-0.158,3.326-0.48c1.018-0.318,1.906-0.766,2.664-1.348c0.76-0.578,1.35-1.277,1.768-2.096
			c0.42-0.818,0.629-1.727,0.629-2.725V72.644z"/>
		<path fill="#949699" d="M283.32,43.951h6.812l22.42,28.992V43.951h7.309v41.934h-6.158L290.627,56.05v29.834h-7.307V43.951z"/>
		<path fill="#949699" d="M342.984,69.349l-16.652-25.398h8.686l11.742,18.568l11.861-18.568h8.447l-16.654,25.219v16.715h-7.43
			V69.349z"/>
		<path fill="#949699" d="M393.066,86.603c-3.076,0-5.91-0.559-8.506-1.678c-2.598-1.117-4.85-2.645-6.758-4.584
			c-1.908-1.936-3.406-4.223-4.494-6.859c-1.086-2.635-1.629-5.449-1.629-8.445v-0.121c0-2.994,0.531-5.801,1.6-8.416
			c1.066-2.615,2.564-4.912,4.494-6.889c1.926-1.977,4.211-3.535,6.846-4.674c2.637-1.139,5.553-1.707,8.746-1.707
			c1.918,0,3.664,0.16,5.244,0.479c1.574,0.322,3.023,0.77,4.342,1.348c1.318,0.582,2.537,1.27,3.654,2.068s2.176,1.678,3.176,2.637
			l-4.734,5.451c-1.676-1.559-3.453-2.816-5.332-3.773c-1.877-0.961-4.012-1.439-6.41-1.439c-1.996,0-3.844,0.389-5.539,1.17
			c-1.699,0.777-3.168,1.836-4.402,3.174c-1.24,1.338-2.199,2.906-2.877,4.701c-0.68,1.797-1.02,3.715-1.02,5.754v0.117
			c0,2.039,0.34,3.965,1.02,5.781c0.678,1.818,1.637,3.406,2.877,4.764c1.234,1.357,2.703,2.426,4.402,3.205
			c1.695,0.779,3.543,1.168,5.539,1.168c2.557,0,4.754-0.488,6.592-1.467c1.836-0.979,3.654-2.307,5.451-3.984l4.732,4.793
			c-1.078,1.158-2.207,2.186-3.385,3.084c-1.18,0.898-2.447,1.678-3.805,2.336c-1.357,0.66-2.846,1.16-4.463,1.498
			S395.023,86.603,393.066,86.603z"/>
	</g>
</g>
</svg>
