<?xml version="1.0" encoding="utf-8"?>
<!-- Generator: Adobe Illustrator 15.1.0, SVG Export Plug-In . SVG Version: 6.00 Build 0)  -->
<!DOCTYPE svg PUBLIC "-//W3C//DTD SVG 1.1//EN" "http://www.w3.org/Graphics/SVG/1.1/DTD/svg11.dtd">
<svg version="1.1" id="Layer_1" xmlns="http://www.w3.org/2000/svg" xmlns:xlink="http://www.w3.org/1999/xlink" x="0px" y="0px"
	 width="288.235px" height="126.891px" viewBox="0 0 288.235 126.891" enable-background="new 0 0 288.235 126.891"
	 xml:space="preserve">
<g>
	<path fill="#DE2627" d="M129.399,34.629l-0.004-0.434c-0.609,0.154-1.25,0.176-1.863,0.066l0.004,0.367
		c-31.551-2.924-37.105,26.303-20.658,46.04c6.279,6.496,10.797,13.838,21.592,8.57c10.803,5.268,15.303-2.074,21.598-8.57
		C166.521,60.928,160.96,31.7,129.399,34.629z M110.017,50.286h-0.016c-0.434,3.018-4.537,3.299-3.24-0.756
		c0.832-3.006,4.254-9.041,11.777-9.041C113.854,42.282,110.265,47.264,110.017,50.286z"/>
	<g>
		<path fill="#55BA6A" d="M106.966,18.012c2.689,11.639,7.676,11.795,20.512,11.795C127.062,23.374,118.073,18.194,106.966,18.012z"
			/>
		<path fill="#49B649" d="M128.233,28.043c-0.004-0.01-0.01-0.018-0.016-0.029c-0.012,0.041-0.025,0.076-0.041,0.111
			c-1.719-6.262-11.145-11.051-21.711-11.051v0.006c0,0-0.109-0.006-0.145,0.002c-0.252,0.057-0.434,0.303-0.377,0.555
			c2.82,12.963,8.34,13.102,21.6,13.107c0,0.006,0,0.014-0.002,0.023c0.598-0.059,1.197-0.006,1.795,0.096
			c0-0.008,0-0.018,0.004-0.025c-0.367-0.645-0.719-1.316-0.938-2.027C128.323,28.561,128.276,28.307,128.233,28.043z
			 M106.966,18.012"/>
	</g>
	<path fill="#997D41" d="M129.472,34.624c-0.023,0-0.047,0-0.07,0.006l-0.006-0.562c-0.031-2.543-0.088-6.807,3.707-9.086
		c0.441-0.266,0.582-0.838,0.318-1.279c-0.264-0.439-0.838-0.586-1.279-0.32c-2.102,1.264-3.209,2.982-3.836,4.744
		c-0.592,1.547-0.633,2.619-0.633,2.619c-0.154,1.26-0.146,2.438-0.137,3.348l0.002,0.537"/>
</g>
<polyline fill="none" stroke="#949699" stroke-width="7.5" stroke-linecap="round" points="75.489,35.359 25.644,63.396 
	75.489,89.875 "/>
<polyline fill="none" stroke="#949699" stroke-width="7.5" stroke-linecap="round" points="216.78,39.92 266.622,67.958 
	216.78,94.437 "/>
<line fill="none" stroke="#949699" stroke-width="7.5" stroke-linecap="round" x1="202.415" y1="25.899" x2="166.333" y2="110.011"/>
</svg>
